<svg width="500" height="500" xmlns="http://www.w3.org/2000/svg">
 <g>
  <title>Layer 1</title>
  <g stroke="null" id="svg_1">
   <title stroke="null">file_type_access2</title>
   <path stroke="null" id="svg_2" d="m258.81842,0.00001l33.59212,0l0,50.3331a355.77587,364.99206 0 0 1 163.31073,12.35201c19.64255,6.87432 41.01774,22.56374 39.1083,46.57852q0.33592,133.06076 0,266.24849c1.96249,24.30499 -19.97847,39.90372 -39.83318,46.68735a357.4378,366.69704 0 0 1 -162.65656,12.00739l0,62.15911l-34.95348,0c-85.67758,-16.0159 -171.585,-30.70773 -257.38633,-46.17949l0,-403.89818c86.24334,-15.47176 172.61044,-30.52634 258.80074,-46.28831" fill="#a12935"/>
   <path stroke="null" id="svg_3" d="m292.44589,67.87261a354.43219,363.61357 0 0 1 151.39437,8.4342c13.43685,5.13307 31.45283,11.31815 34.4938,27.76936c-2.24537,13.4403 -15.91206,19.51655 -26.71457,24.35941a340.34118,349.15754 0 0 1 -159.12055,11.13677l0,-71.69973" fill="#fff"/>
   <path stroke="null" id="svg_4" d="m407.66685,157.69225a143.2085,146.91824 0 0 0 70.59648,-25.7379c-1.2376,24.81286 1.90945,49.91592 -1.76801,74.51113a77.79227,79.80744 0 0 1 -40.45198,20.89504a403.1054,413.54763 0 0 1 -143.68586,5.44142l0,-74.89202a451.31893,463.0101 0 0 0 115.22096,-0.23579" fill="#fff"/>
   <path stroke="null" id="svg_5" d="m114.9204,151.74297c13.10093,-0.97945 26.16649,-1.81381 39.32046,-2.93836c18.84695,64.64402 36.73917,129.63267 55.35627,194.33111c-12.99485,-0.87063 -25.98969,-1.81381 -38.89613,-3.06533c-3.42993,-14.51044 -7.07202,-28.85764 -10.80252,-43.22298c-17.27342,0 -34.54684,-0.63483 -51.74954,-1.50546q-4.98578,20.51414 -10.13068,40.91945q-16.54854,-1.30594 -32.97331,-2.4305c16.42478,-60.78062 33.59212,-121.32544 49.84009,-182.10606" fill="#fff"/>
   <path stroke="null" id="svg_6" d="m115.11488,264.18077c5.6753,-27.00756 14.14405,-53.38029 17.89222,-80.80503c5.0565,27.35219 12.88876,54.01512 19.28895,81.04082q-18.65246,0 -37.12813,-0.23579" fill="#a12935"/>
   <path stroke="null" id="svg_7" d="m408.00277,249.99681a142.30681,145.9932 0 0 0 70.26056,-25.68348c-1.13152,24.75844 1.76801,49.75268 -1.57353,74.36602a76.02426,77.99363 0 0 1 -40.1691,20.94945a404.11316,414.5815 0 0 1 -144.07482,5.53211l0,-74.91016a448.84372,460.47077 0 0 0 115.55688,-0.29021" fill="#fff"/>
   <path stroke="null" id="svg_8" d="m407.79061,342.31951a142.7665,146.46479 0 0 0 70.4904,-25.68348c-1.18456,24.75844 1.85641,49.86151 -1.76801,74.36602c-15.91206,17.77529 -41.17686,21.05828 -63.06478,25.62907a413.46591,424.17653 0 0 1 -121.3029,0.45345c0.38896,-24.86727 0.22984,-49.69827 0.22984,-74.56554a447.16411,458.74766 0 0 0 115.32704,-0.29021" fill="#fff"/>
  </g>
 </g>

</svg>